<?xml version="1.0" encoding="UTF-8"?>
<svg width="28px" height="26px" viewBox="0 0 28 26" version="1.1" xmlns="http://www.w3.org/2000/svg" xmlns:xlink="http://www.w3.org/1999/xlink">
    <title>Group 11</title>
    <defs>
        <polygon id="path-1" points="0 0.0853333333 26.74 0.0853333333 26.74 24 0 24"></polygon>
        <polygon id="path-3" points="0 25.248 26.74 25.248 26.74 1.33333333 0 1.33333333"></polygon>
    </defs>
    <g id="Page-1" stroke="none" stroke-width="1" fill="none" fill-rule="evenodd">
        <g id="02---BM-LOGIN-Copy" transform="translate(-331.000000, -15.000000)">
            <g id="Group-11" transform="translate(331.000000, 15.000000)">
                <g id="Group-3" transform="translate(0.000000, 1.248000)">
                    <mask id="mask-2" fill="white">
                        <use xlink:href="#path-1"></use>
                    </mask>
                    <g id="Clip-2"></g>
                    <path d="M6.94266667,14.7517333 C6.76533333,14.7517333 6.596,14.8224 6.47066667,14.9464 L4,17.4184 L4,15.4184 C4,15.0504 3.70133333,14.7517333 3.33333333,14.7517333 L2,14.7517333 C1.632,14.7517333 1.33333333,14.4530667 1.33333333,14.0850667 L1.33333333,2.08506667 C1.33333333,1.71706667 1.632,1.4184 2,1.4184 L19.3333333,1.4184 C19.7013333,1.4184 20,1.71706667 20,2.08506667 L20,11.0357333 L14.988,11.0357333 C14.2186667,11.0357333 13.592,11.6624 13.592,12.4317333 L13.592,14.7517333 L6.94266667,14.7517333 Z M23.9493333,20.3984 L23.9493333,21.1117333 L22.8146667,19.9744 C22.7026667,19.8637333 22.5493333,19.7997333 22.392,19.7997333 L14.988,19.7997333 C14.8786667,19.7997333 14.7906667,19.7117333 14.7906667,19.6024 L14.7906667,12.4317333 C14.7906667,12.3224 14.8786667,12.2330667 14.988,12.2330667 L25.3453333,12.2330667 C25.4546667,12.2330667 25.5426667,12.3224 25.5426667,12.4317333 L25.5426667,19.6024 C25.5426667,19.7117333 25.4546667,19.7997333 25.3453333,19.7997333 L24.548,19.7997333 C24.2186667,19.7997333 23.9493333,20.0690667 23.9493333,20.3984 L23.9493333,20.3984 Z M25.3453333,11.0357333 L21.3333333,11.0357333 L21.3333333,2.08506667 C21.3333333,0.981066667 20.4373333,0.0850666667 19.3333333,0.0850666667 L2,0.0850666667 C0.896,0.0850666667 0,0.981066667 0,2.08506667 L0,14.0850667 C0,15.1890667 0.896,16.0850667 2,16.0850667 L2.66666667,16.0850667 L2.66666667,20.6370667 L7.21866667,16.0850667 L13.592,16.0850667 L13.592,19.6024 C13.592,20.3717333 14.2186667,20.9984 14.988,20.9984 L22.1426667,20.9984 L25.1466667,24.0010667 L25.1466667,20.9984 L25.3453333,20.9984 C26.1146667,20.9984 26.7413333,20.3717333 26.7413333,19.6024 L26.7413333,12.4317333 C26.7413333,11.6624 26.1146667,11.0357333 25.3453333,11.0357333 L25.3453333,11.0357333 Z" id="Fill-1" fill="#2C2A29" mask="url(#mask-2)"></path>
                </g>
                <mask id="mask-4" fill="white">
                    <use xlink:href="#path-3"></use>
                </mask>
                <g id="Clip-5"></g>
                <polygon id="Fill-4" fill="#2C2A29" mask="url(#mask-4)" points="10.564 2.80133333 10.7693333 2.80133333 10.7693333 2.796 10.564 2.796"></polygon>
                <path d="M17.4544,16.6677333 C17.0690667,16.6677333 16.7584,16.9784 16.7584,17.3637333 C16.7584,17.7490667 17.0690667,18.0610667 17.4544,18.0610667 C17.8384,18.0610667 18.1504,17.7490667 18.1504,17.3637333 C18.1504,16.9784 17.8384,16.6677333 17.4544,16.6677333" id="Fill-6" fill="#2C2A29" mask="url(#mask-4)"></path>
                <path d="M20.2408,16.6677333 C19.8568,16.6677333 19.5448,16.9784 19.5448,17.3637333 C19.5448,17.7490667 19.8568,18.0610667 20.2408,18.0610667 C20.6261333,18.0610667 20.9368,17.7490667 20.9368,17.3637333 C20.9368,16.9784 20.6261333,16.6677333 20.2408,16.6677333" id="Fill-7" fill="#2C2A29" mask="url(#mask-4)"></path>
                <path d="M23.0273333,16.6677333 C22.6433333,16.6677333 22.3313333,16.9784 22.3313333,17.3637333 C22.3313333,17.7490667 22.6433333,18.0610667 23.0273333,18.0610667 C23.4126667,18.0610667 23.7246667,17.7490667 23.7246667,17.3637333 C23.7246667,16.9784 23.4126667,16.6677333 23.0273333,16.6677333" id="Fill-8" fill="#2C2A29" mask="url(#mask-4)"></path>
                <path d="M10.5194667,10.9541333 L10.5194667,11.1341333 L9.80346667,11.1341333 L9.80346667,10.8394667 C9.80346667,10.4168 9.87146667,10.0674667 10.0034667,9.79413333 C10.1368,9.5208 10.3834667,9.23146667 10.7461333,8.92613333 C11.2488,8.51013333 11.5661333,8.1968 11.6981333,7.98613333 C11.8274667,7.7768 11.8941333,7.52346667 11.8941333,7.22613333 C11.8941333,6.8568 11.7728,6.57146667 11.5314667,6.37013333 C11.2888,6.1688 10.9394667,6.0688 10.4861333,6.0688 C10.1941333,6.0688 9.9088,6.10213333 9.63146667,6.1688 C9.35546667,6.23546667 9.0368,6.35813333 8.67813333,6.5368 L8.35146667,5.80213333 C9.0488,5.44346667 9.77946667,5.26346667 10.5421333,5.26346667 C11.2474667,5.26346667 11.7968,5.43413333 12.1874667,5.77413333 C12.5794667,6.11546667 12.7754667,6.59546667 12.7754667,7.21413333 C12.7754667,7.4808 12.7394667,7.71146667 12.6674667,7.91413333 C12.5954667,8.11413333 12.4901333,8.3048 12.3488,8.48346667 C12.2088,8.66346667 11.9048,8.9528 11.4394667,9.35146667 C11.0661333,9.66213333 10.8194667,9.92213333 10.6994667,10.1288 C10.5794667,10.3341333 10.5194667,10.6101333 10.5194667,10.9541333" id="Fill-9" fill="#2C2A29" mask="url(#mask-4)"></path>
                <path d="M10.6913333,13.2874667 C10.5726667,13.4168 10.4086667,13.4821333 10.198,13.4821333 C10.0046667,13.4821333 9.846,13.4248 9.72066667,13.3101333 C9.59533333,13.1968 9.53266667,13.0088 9.53266667,12.7474667 C9.53266667,12.2554667 9.754,12.0088 10.198,12.0088 C10.4113333,12.0088 10.5766667,12.0714667 10.694,12.1994667 C10.81,12.3248 10.8686667,12.5088 10.8686667,12.7474667 C10.8686667,12.9794667 10.81,13.1594667 10.6913333,13.2874667" id="Fill-10" fill="#2C2A29" mask="url(#mask-4)"></path>
            </g>
        </g>
    </g>
</svg>