<?xml version="1.0" encoding="UTF-8"?>
<svg width="208px" height="58px" viewBox="0 0 208 58" version="1.1" xmlns="http://www.w3.org/2000/svg" xmlns:xlink="http://www.w3.org/1999/xlink">
    <title>logos/BancoAgricola/primario/positivo</title>
    <g id="Page-1" stroke="none" stroke-width="1" fill="none" fill-rule="evenodd">
        <g id="01---BM-LOGIN" transform="translate(-84.000000, 0.000000)">
            <g id="logos/BancoAgricola/primario/positivo" transform="translate(84.000000, 0.000000)">
                <path d="M0,0 L208,0 L208,58 L0,58 L0,0 Z" id="logos/BancoAgricola/primario/positivo-(Background)"></path>
                <path d="M18.6877959,24.9884318 C18.808281,25.4516031 19.2784383,25.6907285 19.7557318,25.5336314 C23.6701693,24.3409859 27.5942325,23.5246778 31.6430956,22.9309236 C32.1072785,22.8694436 32.3611935,22.3943409 32.1905893,21.9177467 C31.8311255,20.913684 31.6494025,20.4128955 31.2818068,19.4143014 C31.1258068,18.9904043 30.7039422,18.7125015 30.272287,18.7587358 C26.3151982,19.2417928 22.4925356,19.9551928 18.6612427,21.0542097 C18.1622088,21.2093182 17.8560173,21.7623066 17.981813,22.2531522 C18.2616172,23.3455405 18.402847,23.8925635 18.6877959,24.9884318 C18.7681193,25.2972127 18.7681193,25.2972127 18.6877959,24.9884318 Z" id="Fill-1" fill="#2C2A29"></path>
                <path d="M34.552687,25.5372845 C34.40067,25.0885301 33.9884322,24.7884213 33.5806748,24.8414499 C27.3861476,25.6232903 21.3540916,27.1394107 15.6342026,29.645509 C15.2169856,29.8408862 14.9667218,30.3605666 15.0541814,30.8182696 C15.2783898,31.9897044 15.3915728,32.5758366 15.6204281,33.7492599 C15.7181771,34.251043 16.1916537,34.4820481 16.658326,34.2565109 C22.4683299,31.6218183 28.6082576,29.944458 34.9066744,28.9442061 C35.3071297,28.8792461 35.5112562,28.4250229 35.3580775,27.9568798 C35.0406009,26.986788 34.8794572,26.5027364 34.552687,25.5372845 C34.4513423,25.2381149 34.4513423,25.2381149 34.552687,25.5372845 Z" id="Fill-2" fill="#2C2A29"></path>
                <path d="M34.5352408,32.0778689 C34.3815642,31.5987892 33.9328146,31.2862523 33.5064699,31.3730865 C29.6386653,32.2039774 25.8579887,33.2053883 22.1128265,34.4795646 C21.6378562,34.6520731 21.3703328,35.1482212 21.4951328,35.6047637 C21.7928605,36.6921802 21.9427201,37.2365515 22.2442648,38.3274479 C22.3858265,38.8396704 22.9665117,39.101996 23.5015585,38.8999904 C27.245559,37.5726198 31.027066,36.4134489 34.8910536,35.4841238 C35.2618025,35.3949696 35.4441892,34.96461 35.3062785,34.520496 C35.0022445,33.541291 34.8479047,33.0527654 34.5352408,32.0778689 C34.4327898,31.7584825 34.4327898,31.7584825 34.5352408,32.0778689 Z" id="Fill-3" fill="#2C2A29"></path>
                <path d="M46.3900931,19.4719849 C49.7505665,19.4719849 52.4390781,21.037819 52.4390781,23.7721042 C52.4390781,25.3379383 51.6175886,26.3819383 50.1490306,26.9536524 C52.3332861,27.5768564 53.314039,28.8703466 53.3813067,30.9454148 L53.3850365,31.1791999 L53.3850365,31.1791999 C53.3850365,34.0873195 50.4475881,36.0261765 47.1120084,36.0261765 L40.9883423,36.0261765 L40.9883423,19.9691276 C43.0296196,19.670842 44.5730244,19.4719849 46.3900931,19.4719849 Z M46.7885484,29.1408997 L44.7970581,29.1408997 L44.7970581,32.8693066 L46.7634888,32.8693066 C48.3112231,32.8693066 49.2212288,32.2781493 49.297434,31.1608063 L49.302639,31.0051859 L49.302639,31.0051859 C49.302639,29.687757 48.4562555,29.1408997 46.7885484,29.1408997 Z M46.3900842,22.6038208 C45.867484,22.6038208 45.3198243,22.6535351 44.7970581,22.7281066 L44.7970581,26.0339432 L46.4898247,26.0339432 C47.9832763,26.0339432 48.6802979,25.4125142 48.6802979,24.343822 C48.6802979,23.3689891 48.0197932,22.6670679 46.5898552,22.6078741 L46.3900842,22.6038208 L46.3900842,22.6038208 Z" id="Fill-4" fill="#2C2A29"></path>
                <path d="M60.1399759,23.3743896 C63.7244894,23.3743896 65.8155518,24.7166757 65.8155518,28.1965104 L65.8155518,34.7336085 C64.4712969,35.7527515 62.3055535,36.2996082 59.3682738,36.2996082 C56.754611,36.2996082 54.5888672,35.2307515 54.5888672,32.8693225 C54.5888672,29.3149163 58.0490787,28.445082 62.1563578,28.3207963 C62.081677,26.7796533 61.4593369,26.3819385 60.0901886,26.3819385 C59.368274,26.3819385 57.451466,26.7050814 57.2026959,26.7050814 C56.6052493,26.7050814 56.1322708,26.3322243 55.7339731,25.2386756 L55.4352498,24.3438184 C56.9786535,23.772104 58.4969978,23.3743896 60.1399759,23.3743896 Z M62.1563492,30.7070923 L61.4342698,30.7070923 C59.7416735,30.7070923 58.1982727,31.0799498 58.1982727,32.2480709 C58.1982727,33.142929 58.7958842,33.4660721 60.0155028,33.4660721 C60.9863517,33.4660721 61.7829457,33.1676204 62.1563492,32.8446429 L62.1563492,30.7070923 Z" id="Fill-5" fill="#2C2A29"></path>
                <path d="M79.5231552,27.1773513 L79.5231552,36.0261612 L75.7892795,36.0261612 L75.7892795,28.4947797 C75.7892795,27.1773514 74.9181693,26.5062087 73.3994932,26.5062087 C72.8271061,26.5062087 72.2794467,26.5807799 71.8064681,26.7050656 L71.8064681,36.0261612 L68.047699,36.0261612 L68.0725926,24.9652317 C69.64089,23.921232 72.1798722,23.3495178 74.2458758,23.3495178 C77.1086409,23.3495178 79.5231552,24.766209 79.5231552,27.1773513 L79.5231552,27.1773513 Z" id="Fill-6" fill="#2C2A29"></path>
                <path d="M81.1420898,29.9613675 C81.1420898,25.6113678 84.1787751,23.3246765 88.1119617,23.3246765 C89.2071135,23.3246765 90.2028569,23.4738194 91.397583,23.7472479 C91.2483875,24.990105 90.7256229,26.0836535 90.1530704,26.705082 C89.7300454,26.5807963 89.0328588,26.4813679 88.6347274,26.4813679 C86.1206411,26.4813679 85.099838,27.7739392 85.099838,29.7376534 C85.099838,31.726059 86.0457943,32.9440589 88.4105191,32.9440589 C89.0579183,32.9440589 89.8045602,32.8197727 90.7256228,32.4964642 L91.397583,35.479322 C90.0286018,36.0261791 88.6098335,36.2747498 87.4896221,36.2747498 C83.6561759,36.2747498 81.1420898,33.9878931 81.1420898,29.9613675 C81.1420898,27.0613677 81.1420898,27.0613677 81.1420898,29.9613675 Z" id="Fill-7" fill="#2C2A29"></path>
                <path d="M98.6167118,23.3246765 C102.574629,23.3246765 105.113777,25.9096537 105.113777,29.7873678 C105.113777,33.7890361 102.549902,36.2747498 98.6167118,36.2747498 C94.7448359,36.2747498 92.2308731,33.8247302 92.1234002,30.0415431 L92.119812,29.7873678 L92.119812,29.7873678 C92.119812,25.8102252 94.8081558,23.3246765 98.6167118,23.3246765 Z M98.6167382,26.5559387 C96.923969,26.5559387 95.8786011,27.7490808 95.8786011,29.7873653 C95.8786011,31.9249126 96.8992412,33.0434837 98.6167382,33.0434837 C100.297061,33.0434837 101.282964,32.0033838 101.351243,30.0124846 L101.355042,29.7873653 L101.355042,29.7873653 C101.355042,27.7490808 100.359295,26.5559387 98.6167382,26.5559387 Z" id="Fill-8" fill="#2C2A29"></path>
                <path d="M111.885171,23.3743896 C115.469521,23.3743896 117.560585,24.7166757 117.560585,28.1965104 L117.560585,34.7336085 C116.216329,35.7527515 114.05075,36.2996082 111.113303,36.2996082 C108.499638,36.2996082 106.333893,35.2307515 106.333893,32.8693225 C106.333893,29.3149163 109.794107,28.445082 113.901389,28.3207963 C113.826708,26.7796533 113.204367,26.3819385 111.835218,26.3819385 C111.113303,26.3819385 109.196494,26.7050814 108.947723,26.7050814 C108.350276,26.7050814 107.877298,26.3322243 107.479166,25.2386756 L107.180276,24.3438184 C108.723681,23.772104 110.242026,23.3743896 111.885171,23.3743896 Z M113.901398,30.7070923 L113.17948,30.7070923 C111.486708,30.7070923 109.943298,31.0799498 109.943298,32.2480709 C109.943298,33.142929 110.540913,33.4660721 111.760705,33.4660721 C112.731393,33.4660721 113.527992,33.1676204 113.901398,32.8446429 L113.901398,30.7070923 Z" id="Fill-9" fill="#2C2A29"></path>
                <path d="M126.273512,23.3246765 C128.414197,23.3246765 130.131856,23.747248 131.799728,24.9652478 L131.799728,35.3301786 C131.799728,38.5862983 130.331005,40.9974403 125.725853,40.9974403 C123.908785,40.9974403 122.390275,40.7488698 121.195381,40.2765841 C121.195381,39.1082985 121.319849,38.1885836 121.718313,37.5424636 C123.336232,37.8656065 124.406657,38.0396062 125.725853,38.0396062 C127.393725,38.0396062 128.040793,37.4677271 128.040793,36.0013215 L128.040793,34.982178 C127.020321,35.6781779 125.750746,36.1504646 124.481338,36.1504646 C120.747296,36.1504646 119.253845,33.9133215 119.253845,30.0856533 C119.253845,26.0587965 122.191125,23.3246765 126.273512,23.3246765 Z M126.12416,26.4565125 C124.207519,26.4565125 122.987732,27.8485117 122.987732,29.936345 C122.987732,32.024344 123.73454,33.1676064 126.173947,33.1676064 C126.771394,33.1676064 127.393734,33.0683437 128.040802,32.8446296 L128.040802,26.7050838 C127.443521,26.5310838 126.721607,26.4565125 126.12416,26.4565125 Z" id="Fill-10" fill="#2C2A29"></path>
                <path d="M141.51639,26.58078 C139.624475,26.58078 138.802986,26.6802085 137.956603,27.1773513 L137.956603,36.0261612 L134.197998,36.0261612 L134.222726,24.9652317 C136.015066,23.8466605 137.48379,23.3495178 139.525067,23.3495178 C140.869156,23.3495178 141.541284,23.5980892 142.088943,23.8218034 C142.088943,24.9153518 141.989203,25.8847801 141.51639,26.58078 C140.255114,26.58078 140.255114,26.58078 141.51639,26.58078 Z" id="Fill-11" fill="#2C2A29"></path>
                <path d="M145.797939,23.3495178 C146.520018,23.3495178 147.117462,23.4738035 147.64006,23.6975178 L147.64006,36.0261631 L143.88147,36.0261631 L143.88147,23.6975178 L143.88147,23.6975178 C144.428961,23.4738035 145.076193,23.3495178 145.797939,23.3495178 Z M146.718976,17.2845459 L147.490844,17.6325457 C148.859828,18.2539739 149.034083,18.8008307 148.984296,19.3228304 C148.959402,19.621116 148.760253,20.4163783 147.540466,21.4603777 L146.420253,22.4298058 L144.528503,21.4106634 L146.718976,17.2845459 Z" id="Fill-12" fill="#2C2A29"></path>
                <path d="M149.756226,29.9613675 C149.756226,25.6113678 152.793082,23.3246765 156.726109,23.3246765 C157.821428,23.3246765 158.817174,23.4738194 160.011902,23.7472479 C159.86254,24.990105 159.339774,26.0836535 158.767386,26.705082 C158.344195,26.5807963 157.647173,26.4813679 157.248875,26.4813679 C154.734785,26.4813679 153.714146,27.7739392 153.714146,29.7376534 C153.714146,31.726059 154.660104,32.9440589 157.024832,32.9440589 C157.672066,32.9440589 158.41871,32.8197727 159.339774,32.4964642 L160.011902,35.479322 C158.642918,36.0261791 157.223981,36.2747498 156.103768,36.2747498 C152.270316,36.2747498 149.756226,33.9878931 149.756226,29.9613675 C149.756226,27.0613677 149.756226,27.0613677 149.756226,29.9613675 Z" id="Fill-13" fill="#2C2A29"></path>
                <path d="M167.231198,23.3246765 C171.188452,23.3246765 173.7276,25.9096537 173.7276,29.7873678 C173.7276,33.7890361 171.163559,36.2747498 167.231198,36.2747498 C163.359159,36.2747498 160.845192,33.8247302 160.737719,30.0415431 L160.734131,29.7873678 L160.734131,29.7873678 C160.734131,25.8102252 163.422641,23.3246765 167.231198,23.3246765 Z M167.231227,26.5559387 C165.538455,26.5559387 164.49292,27.7490808 164.49292,29.7873653 C164.49292,31.9249126 165.513561,33.0434837 167.231227,33.0434837 C168.911391,33.0434837 169.896674,32.0033838 169.964908,30.0124846 L169.968704,29.7873653 L169.968704,29.7873653 C169.968704,27.7490808 168.97362,26.5559387 167.231227,26.5559387 Z" id="Fill-14" fill="#2C2A29"></path>
                <path d="M175.845215,20.0685397 C176.714836,19.422254 178.606759,18.8753967 179.602509,18.8753967 L179.602509,36.0261631 L175.845215,36.0261631 L175.845215,20.0685397 C176.424962,19.6376825 176.424962,19.6376825 175.845215,20.0685397 Z" id="Fill-15" fill="#2C2A29"></path>
                <path d="M187.244826,23.3743896 C190.829511,23.3743896 192.920578,24.7166757 192.920578,28.1965104 L192.920578,34.7336085 C191.576321,35.7527515 189.410574,36.2996082 186.473123,36.2996082 C183.85929,36.2996082 181.693542,35.2307515 181.693542,32.8693225 C181.693542,29.3149163 185.15376,28.445082 189.261212,28.3207963 C189.186531,26.7796533 188.564189,26.3819385 187.195039,26.3819385 C186.473123,26.3819385 184.556312,26.7050814 184.307376,26.7050814 C183.709928,26.7050814 183.236949,26.3322243 182.83865,25.2386756 L182.539927,24.3438184 C184.083333,23.772104 185.601845,23.3743896 187.244826,23.3743896 Z M189.261185,30.7070923 L188.53927,30.7070923 C186.846504,30.7070923 185.303101,31.0799498 185.303101,32.2480709 C185.303101,33.142929 185.900547,33.4660721 187.120334,33.4660721 C188.091185,33.4660721 188.887781,33.1676204 189.261185,32.8446429 L189.261185,30.7070923 Z" id="Fill-16" fill="#2C2A29"></path>
            </g>
        </g>
    </g>
</svg>