<?xml version="1.0" encoding="UTF-8"?>
<svg width="32px" height="32px" viewBox="0 0 32 32" version="1.1" xmlns="http://www.w3.org/2000/svg" xmlns:xlink="http://www.w3.org/1999/xlink">
    <title>logos/Bancolombia/isotipo/negro</title>
    <g id="Page-1" stroke="none" stroke-width="1" fill="none" fill-rule="evenodd">
        <g id="1---EBP-HOME---CUENTAS" transform="translate(-253.000000, -892.000000)">
            <g id="logos/Bancolombia/isotipo/negro" transform="translate(253.000000, 892.000000)">
                <path d="M0,0 L32,0 L32,32 L0,32 L0,0 Z" id="logos/Bancolombia/isotipo/negro-(Background)"></path>
                <path d="M8.08011205,11.0620389 C8.22983571,11.6345213 8.81388173,11.9300814 9.40720813,11.7359085 C14.2715772,10.2615871 19.1477008,9.25283066 24.1793229,8.51894717 C24.7559446,8.44295756 25.0714784,7.85572762 24.859473,7.26665454 C24.4127768,6.02562751 24.1869541,5.40665031 23.7301525,4.17238242 C23.5362955,3.64844328 23.0120563,3.30474902 22.4756496,3.36209966 C17.5584855,3.95916088 12.8079562,4.84092704 8.04690884,6.19911329 C7.42677243,6.39082831 7.04627636,7.07453007 7.20259941,7.681218 C7.55030475,9.03141611 7.72580732,9.70753948 8.08011205,11.0620389 C8.17992782,11.4436938 8.17992782,11.4436938 8.08011205,11.0620389 Z" id="Fill-1" fill="#2C2A29"></path>
                <path d="M27.5610671,11.7859597 C27.3734508,11.2297371 26.8646751,10.8581006 26.3614293,10.9238043 C18.7162703,11.8923174 11.2718363,13.7710318 4.21226156,16.8761461 C3.69734088,17.1180177 3.38847041,17.7621194 3.49661604,18.3292242 C3.77312474,19.780454 3.91281289,20.5066851 4.19526142,21.9607894 C4.31610597,22.5825104 4.90025626,22.868732 5.47641849,22.5890807 C12.6468016,19.3248402 20.2245751,17.2463454 27.9981568,16.0070099 C28.4921857,15.9267282 28.7441133,15.3639352 28.5550632,14.783895 C28.1632402,13.5819284 27.9643601,12.9821771 27.5610671,11.7859597 C27.4359895,11.4151446 27.4359895,11.4151446 27.5610671,11.7859597 Z" id="Fill-2" fill="#2C2A29"></path>
                <path d="M27.6146164,19.90147 C27.426094,19.3039335 26.8747926,18.9137773 26.35121,19.0223263 C21.6012614,20.0588143 16.9583122,21.3082653 12.3589777,22.8982498 C11.7756793,23.113487 11.4471408,23.7325265 11.6006082,24.3021504 C11.9660359,25.6587028 12.1500746,26.3381164 12.5203936,27.6992177 C12.6942418,28.3383129 13.4073659,28.6654071 14.0644428,28.4135734 C18.6623508,26.7574256 23.3063186,25.3111393 28.0515798,24.151629 C28.5068869,24.0401854 28.7308723,23.5032295 28.5615078,22.9493194 C28.1881316,21.7275745 27.9985906,21.118046 27.6146164,19.90147 C27.4889348,19.5031123 27.4889348,19.5031123 27.6146164,19.90147 Z" id="Fill-3" fill="#2C2A29"></path>
            </g>
        </g>
    </g>
</svg>