<?xml version="1.0" encoding="UTF-8"?>
<svg width="12px" height="12px" viewBox="0 0 12 12" version="1.1" xmlns="http://www.w3.org/2000/svg" xmlns:xlink="http://www.w3.org/1999/xlink">
    <title>🦄 icon</title>
    <defs>
        <path d="M5.33550272,2.6668 C6.06950272,2.6668 6.66750272,3.26413333 6.66750272,3.9988 L6.66750272,5.5288 C6.66750272,5.70413333 6.59616939,5.87613333 6.47216939,6.00013333 L5.33616939,7.13546667 C5.40616939,9.05013333 6.95083605,10.5941333 8.86483605,10.6641333 L10.0008361,9.5288 C10.1248361,9.4048 10.2961694,9.33346667 10.4721694,9.33346667 L12.0021694,9.33346667 C12.7361694,9.33346667 13.3341694,9.9308 13.3341694,10.6654667 L13.3341694,12.3568 C13.3341694,12.9454667 12.9588361,13.4581333 12.4001694,13.6334667 C11.6228361,13.8781333 10.8208361,14.0008 10.0055027,14.0008 C9.62083605,14.0008 9.23283605,13.9734667 8.84283605,13.9188 C5.35216939,13.4281333 2.57216939,10.6481333 2.08216939,7.15746667 C1.91150272,5.94213333 2.00683605,4.7448 2.36683605,3.60013333 C2.54216939,3.04213333 3.05550272,2.6668 3.64350272,2.6668 L5.33550272,2.6668 Z M5.33550272,3.33346667 L3.64350272,3.33346667 C3.34816939,3.33346667 3.09083605,3.5208 3.00283605,3.80013333 C2.67283605,4.85013333 2.58550272,5.94813333 2.74216939,7.0648 C3.19150272,10.2621333 5.73816939,12.8094667 8.93550272,13.2588 C10.0521694,13.4161333 11.1508361,13.3281333 12.2001694,12.9974667 C12.4795027,12.9101333 12.6675027,12.6528 12.6675027,12.3568 L12.6675027,10.6654667 C12.6675027,10.2988 12.3688361,10.0001333 12.0021694,10.0001333 L10.4721694,10.0001333 L9.13883605,11.3334667 L9.00083605,11.3334667 C6.61150272,11.3334667 4.66750272,9.38946667 4.66750272,7.00013333 L4.66750272,6.86213333 L6.00083605,5.5288 L6.00083605,3.9988 C6.00083605,3.63213333 5.70216939,3.33346667 5.33550272,3.33346667 Z M9.00056939,4 C10.6545694,4 12.0005694,5.346 12.0005694,7 L12.0005694,7.33333333 L11.3339027,7.33333333 L11.3339027,7 C11.3339027,5.71333333 10.2872361,4.66666667 9.00056939,4.66666667 L8.66723605,4.66666667 L8.66723605,4 L9.00056939,4 Z M9.00056939,2 C11.7579027,2 14.0005694,4.24266667 14.0005694,7 L14.0005694,7.33333333 L13.3339027,7.33333333 L13.3339027,7 C13.3339027,4.61066667 11.3899027,2.66666667 9.00056939,2.66666667 L8.66723605,2.66666667 L8.66723605,2 L9.00056939,2 Z" id="path-1"></path>
    </defs>
    <g id="Page-1" stroke="none" stroke-width="1" fill="none" fill-rule="evenodd">
        <g id="01---BM-LOGIN" transform="translate(-304.000000, -660.000000)">
            <g id="UI/link/white/+icon-Copy" transform="translate(198.000000, 654.000000)">
                <g id="🦄-icon" transform="translate(104.000000, 4.000000)">
                    <mask id="mask-2" fill="white">
                        <use xlink:href="#path-1"></use>
                    </mask>
                    <use id="Mask" fill="#2C2A29" xlink:href="#path-1"></use>
                    <g id="Group" mask="url(#mask-2)" fill="#2C2A29">
                        <g id="🎨-color">
                            <rect id="colores/iconos/gris" x="0" y="0" width="16" height="16"></rect>
                        </g>
                    </g>
                </g>
            </g>
        </g>
    </g>
</svg>